<svg xmlns="http://www.w3.org/2000/svg" width="144" height="224" viewBox="0 0 144 224">
  <g id="secondary-bg" transform="translate(-1727 -277)">
    <path id="_1" data-name="1" d="M140-224v4h4v-4Zm-20,0v4h4v-4Zm-20,0v4h4v-4Zm-20,0v4h4v-4Zm-20,0v4h4v-4Zm-20,0v4h4v-4Zm-20,0v4h4v-4ZM0-224v4H4v-4Zm140,20v4h4v-4Zm-20,0v4h4v-4Zm-20,0v4h4v-4Zm-20,0v4h4v-4Zm-20,0v4h4v-4Zm-20,0v4h4v-4Zm-20,0v4h4v-4ZM0-204v4H4v-4Zm140,20v4h4v-4Zm-20,0v4h4v-4Zm-20,0v4h4v-4Zm-20,0v4h4v-4Zm-20,0v4h4v-4Zm-20,0v4h4v-4Zm-20,0v4h4v-4ZM0-184v4H4v-4Zm140,20v4h4v-4Zm-20,0v4h4v-4Zm-20,0v4h4v-4Zm-20,0v4h4v-4Zm-20,0v4h4v-4Zm-20,0v4h4v-4Zm-20,0v4h4v-4ZM0-164v4H4v-4Zm140,20v4h4v-4Zm-20,0v4h4v-4Zm-20,0v4h4v-4Zm-20,0v4h4v-4Zm-20,0v4h4v-4Zm-20,0v4h4v-4Zm-20,0v4h4v-4ZM0-144v4H4v-4Zm140,20v4h4v-4Zm-20,0v4h4v-4Zm-20,0v4h4v-4Zm-20,0v4h4v-4Zm-20,0v4h4v-4Zm-20,0v4h4v-4Zm-20,0v4h4v-4ZM0-124v4H4v-4Zm140,20v4h4v-4Zm-20,0v4h4v-4Zm-20,0v4h4v-4Zm-20,0v4h4v-4Zm-20,0v4h4v-4Zm-20,0v4h4v-4Zm-20,0v4h4v-4ZM0-104v4H4v-4ZM140-84v4h4v-4Zm-20,0v4h4v-4Zm-20,0v4h4v-4ZM80-84v4h4v-4ZM60-84v4h4v-4ZM40-84v4h4v-4ZM20-84v4h4v-4ZM0-84v4H4v-4ZM140-64v4h4v-4Zm-20,0v4h4v-4Zm-20,0v4h4v-4ZM80-64v4h4v-4ZM60-64v4h4v-4ZM40-64v4h4v-4ZM20-64v4h4v-4ZM0-64v4H4v-4ZM140-44v4h4v-4Zm-20,0v4h4v-4Zm-20,0v4h4v-4ZM80-44v4h4v-4ZM60-44v4h4v-4ZM40-44v4h4v-4ZM20-44v4h4v-4ZM0-44v4H4v-4ZM140-24v4h4v-4Zm-20,0v4h4v-4Zm-20,0v4h4v-4ZM80-24v4h4v-4ZM60-24v4h4v-4ZM40-24v4h4v-4ZM20-24v4h4v-4ZM0-24v4H4v-4ZM140-4V0h4V-4ZM120-4V0h4V-4ZM100-4V0h4V-4ZM80-4V0h4V-4ZM60-4V0h4V-4Z" transform="translate(1727 501)" fill="none"/>
    <path id="_1-2" data-name="1" d="M140-224v4h4v-4Zm-20,0v4h4v-4Zm-20,0v4h4v-4Zm-20,0v4h4v-4Zm-20,0v4h4v-4Zm-20,0v4h4v-4Zm-20,0v4h4v-4ZM0-224v4H4v-4Zm140,20v4h4v-4Zm-20,0v4h4v-4Zm-20,0v4h4v-4Zm-20,0v4h4v-4Zm-20,0v4h4v-4Zm-20,0v4h4v-4Zm-20,0v4h4v-4ZM0-204v4H4v-4Zm140,20v4h4v-4Zm-20,0v4h4v-4Zm-20,0v4h4v-4Zm-20,0v4h4v-4Zm-20,0v4h4v-4Zm-20,0v4h4v-4Zm-20,0v4h4v-4ZM0-184v4H4v-4Zm140,20v4h4v-4Zm-20,0v4h4v-4Zm-20,0v4h4v-4Zm-20,0v4h4v-4Zm-20,0v4h4v-4Zm-20,0v4h4v-4Zm-20,0v4h4v-4ZM0-164v4H4v-4Zm140,20v4h4v-4Zm-20,0v4h4v-4Zm-20,0v4h4v-4Zm-20,0v4h4v-4Zm-20,0v4h4v-4Zm-20,0v4h4v-4Zm-20,0v4h4v-4ZM0-144v4H4v-4Zm140,20v4h4v-4Zm-20,0v4h4v-4Zm-20,0v4h4v-4Zm-20,0v4h4v-4Zm-20,0v4h4v-4Zm-20,0v4h4v-4Zm-20,0v4h4v-4ZM0-124v4H4v-4Zm140,20v4h4v-4Zm-20,0v4h4v-4Zm-20,0v4h4v-4Zm-20,0v4h4v-4Zm-20,0v4h4v-4Zm-20,0v4h4v-4Zm-20,0v4h4v-4ZM0-104v4H4v-4ZM140-84v4h4v-4Zm-20,0v4h4v-4Zm-20,0v4h4v-4ZM80-84v4h4v-4ZM60-84v4h4v-4ZM40-84v4h4v-4ZM20-84v4h4v-4ZM0-84v4H4v-4ZM140-64v4h4v-4Zm-20,0v4h4v-4Zm-20,0v4h4v-4ZM80-64v4h4v-4ZM60-64v4h4v-4ZM40-64v4h4v-4ZM20-64v4h4v-4ZM0-64v4H4v-4ZM140-44v4h4v-4Zm-20,0v4h4v-4Zm-20,0v4h4v-4ZM80-44v4h4v-4ZM60-44v4h4v-4ZM40-44v4h4v-4ZM20-44v4h4v-4ZM0-44v4H4v-4ZM140-24v4h4v-4Zm-20,0v4h4v-4Zm-20,0v4h4v-4ZM80-24v4h4v-4ZM60-24v4h4v-4ZM40-24v4h4v-4ZM20-24v4h4v-4ZM0-24v4H4v-4ZM140-4V0h4V-4ZM120-4V0h4V-4ZM100-4V0h4V-4ZM80-4V0h4V-4ZM60-4V0h4V-4Z" transform="translate(1727 501)" fill="#2bbf96"/>
    <path id="_1-3" data-name="1" d="M140-224v4h4v-4Zm-20,0v4h4v-4Zm-20,0v4h4v-4Zm-20,0v4h4v-4Zm-20,0v4h4v-4Zm-20,0v4h4v-4Zm-20,0v4h4v-4ZM0-224v4H4v-4Zm140,20v4h4v-4Zm-20,0v4h4v-4Zm-20,0v4h4v-4Zm-20,0v4h4v-4Zm-20,0v4h4v-4Zm-20,0v4h4v-4Zm-20,0v4h4v-4ZM0-204v4H4v-4Zm140,20v4h4v-4Zm-20,0v4h4v-4Zm-20,0v4h4v-4Zm-20,0v4h4v-4Zm-20,0v4h4v-4Zm-20,0v4h4v-4Zm-20,0v4h4v-4ZM0-184v4H4v-4Zm140,20v4h4v-4Zm-20,0v4h4v-4Zm-20,0v4h4v-4Zm-20,0v4h4v-4Zm-20,0v4h4v-4Zm-20,0v4h4v-4Zm-20,0v4h4v-4ZM0-164v4H4v-4Zm140,20v4h4v-4Zm-20,0v4h4v-4Zm-20,0v4h4v-4Zm-20,0v4h4v-4Zm-20,0v4h4v-4Zm-20,0v4h4v-4Zm-20,0v4h4v-4ZM0-144v4H4v-4Zm140,20v4h4v-4Zm-20,0v4h4v-4Zm-20,0v4h4v-4Zm-20,0v4h4v-4Zm-20,0v4h4v-4Zm-20,0v4h4v-4Zm-20,0v4h4v-4ZM0-124v4H4v-4Zm140,20v4h4v-4Zm-20,0v4h4v-4Zm-20,0v4h4v-4Zm-20,0v4h4v-4Zm-20,0v4h4v-4Zm-20,0v4h4v-4Zm-20,0v4h4v-4ZM0-104v4H4v-4ZM140-84v4h4v-4Zm-20,0v4h4v-4Zm-20,0v4h4v-4ZM80-84v4h4v-4ZM60-84v4h4v-4ZM40-84v4h4v-4ZM20-84v4h4v-4ZM0-84v4H4v-4ZM140-64v4h4v-4Zm-20,0v4h4v-4Zm-20,0v4h4v-4ZM80-64v4h4v-4ZM60-64v4h4v-4ZM40-64v4h4v-4ZM20-64v4h4v-4ZM0-64v4H4v-4ZM140-44v4h4v-4Zm-20,0v4h4v-4Zm-20,0v4h4v-4ZM80-44v4h4v-4ZM60-44v4h4v-4ZM40-44v4h4v-4ZM20-44v4h4v-4ZM0-44v4H4v-4ZM140-24v4h4v-4Zm-20,0v4h4v-4Zm-20,0v4h4v-4ZM80-24v4h4v-4ZM60-24v4h4v-4ZM40-24v4h4v-4ZM20-24v4h4v-4ZM0-24v4H4v-4ZM140-4V0h4V-4ZM120-4V0h4V-4ZM100-4V0h4V-4ZM80-4V0h4V-4ZM60-4V0h4V-4Z" transform="translate(1727 501)" fill="none"/>
  </g>
</svg>
