<svg xmlns="http://www.w3.org/2000/svg" xmlns:xlink="http://www.w3.org/1999/xlink" width="28" height="28" viewBox="0 0 28 28">
  <defs>
    <filter id="Rectangle" x="5" y="0" width="18" height="17" filterUnits="userSpaceOnUse">
      <feOffset dy="1" input="SourceAlpha"/>
      <feGaussianBlur stdDeviation="1" result="blur"/>
      <feFlood flood-color="#101d2d" flood-opacity="0.122"/>
      <feComposite operator="in" in2="blur"/>
      <feComposite in="SourceGraphic"/>
    </filter>
    <linearGradient id="linear-gradient" x1="0.5" x2="0.5" y2="1" gradientUnits="objectBoundingBox">
      <stop offset="0" stop-color="#fff"/>
      <stop offset="1" stop-color="#e2eeff"/>
    </linearGradient>
    <filter id="Path" x="0" y="0" width="28" height="28" filterUnits="userSpaceOnUse">
      <feOffset dy="1" input="SourceAlpha"/>
      <feGaussianBlur stdDeviation="1" result="blur-2"/>
      <feFlood flood-color="#101d2d" flood-opacity="0.122"/>
      <feComposite operator="in" in2="blur-2"/>
      <feComposite in="SourceGraphic"/>
    </filter>
  </defs>
  <g id="cards-5" transform="translate(3 2)">
    <g transform="matrix(1, 0, 0, 1, -3, -2)" filter="url(#Rectangle)">
      <rect id="Rectangle-2" data-name="Rectangle" width="12" height="11" transform="translate(8 2)" fill="rgba(226,238,255,0.64)"/>
    </g>
    <g transform="matrix(1, 0, 0, 1, -3, -2)" filter="url(#Path)">
      <path id="Path-2" data-name="Path" d="M19,0H15V10L11,7,7,10V0H3A3,3,0,0,0,0,3V19a3,3,0,0,0,3,3H19a3,3,0,0,0,3-3V3A3,3,0,0,0,19,0Z" transform="translate(3 2)" fill="url(#linear-gradient)"/>
    </g>
  </g>
</svg>
