<svg xmlns="http://www.w3.org/2000/svg" xmlns:xlink="http://www.w3.org/1999/xlink" width="30.001" height="29.001" viewBox="0 0 30.001 29.001">
  <defs>
    <filter id="Path" x="0" y="9.001" width="12" height="20" filterUnits="userSpaceOnUse">
      <feOffset dy="1" input="SourceAlpha"/>
      <feGaussianBlur stdDeviation="1" result="blur"/>
      <feFlood flood-color="#101d2d" flood-opacity="0.122"/>
      <feComposite operator="in" in2="blur"/>
      <feComposite in="SourceGraphic"/>
    </filter>
    <linearGradient id="linear-gradient" x1="0.5" x2="0.5" y2="1" gradientUnits="objectBoundingBox">
      <stop offset="0" stop-color="#fff"/>
      <stop offset="1" stop-color="#e2eeff"/>
    </linearGradient>
    <filter id="Path-2" x="6" y="0" width="24.001" height="29.001" filterUnits="userSpaceOnUse">
      <feOffset dy="1" input="SourceAlpha"/>
      <feGaussianBlur stdDeviation="1" result="blur-2"/>
      <feFlood flood-color="#101d2d" flood-opacity="0.122"/>
      <feComposite operator="in" in2="blur-2"/>
      <feComposite in="SourceGraphic"/>
    </filter>
  </defs>
  <g id="cards-3" transform="translate(3 2.001)">
    <g transform="matrix(1, 0, 0, 1, -3, -2)" filter="url(#Path)">
      <path id="Path-3" data-name="Path" d="M5,0H1A1,1,0,0,0,0,1V13a1,1,0,0,0,1,1H6V1A1,1,0,0,0,5,0Z" transform="translate(3 11)" fill="rgba(226,238,255,0.64)"/>
    </g>
    <g transform="matrix(1, 0, 0, 1, -3, -2)" filter="url(#Path-2)">
      <path id="Path-4" data-name="Path" d="M15.882,8.134A2.986,2.986,0,0,0,15,8H9V5C9,1.177,6.411.059,5.042,0a1.017,1.017,0,0,0-.734.277A1,1,0,0,0,4,1V5.639l-4,4.8V23H12.23a2.985,2.985,0,0,0,2.87-2.118l2.769-9a3,3,0,0,0-1.987-3.749Z" transform="translate(9 2)" fill="url(#linear-gradient)"/>
    </g>
  </g>
</svg>
