<svg xmlns="http://www.w3.org/2000/svg" xmlns:xlink="http://www.w3.org/1999/xlink" width="26" height="30" viewBox="0 0 26 30">
  <defs>
    <linearGradient id="linear-gradient" x1="0.5" x2="0.5" y2="1" gradientUnits="objectBoundingBox">
      <stop offset="0" stop-color="#fff"/>
      <stop offset="1" stop-color="#e2eeff"/>
    </linearGradient>
    <filter id="Path" x="0" y="0" width="26" height="30" filterUnits="userSpaceOnUse">
      <feOffset dy="1" input="SourceAlpha"/>
      <feGaussianBlur stdDeviation="1" result="blur"/>
      <feFlood flood-color="#101d2d" flood-opacity="0.122"/>
      <feComposite operator="in" in2="blur"/>
      <feComposite in="SourceGraphic"/>
    </filter>
    <filter id="Path_3" x="12" y="0" width="14" height="14" filterUnits="userSpaceOnUse">
      <feOffset dy="1" input="SourceAlpha"/>
      <feGaussianBlur stdDeviation="1" result="blur-2"/>
      <feFlood flood-color="#101d2d" flood-opacity="0.122"/>
      <feComposite operator="in" in2="blur-2"/>
      <feComposite in="SourceGraphic"/>
    </filter>
  </defs>
  <g id="cards-1" transform="translate(3 2)">
    <g transform="matrix(1, 0, 0, 1, -3, -2)" filter="url(#Path)">
      <path id="Path-2" data-name="Path" d="M12,0H1A1,1,0,0,0,0,1V23a1,1,0,0,0,1,1H19a1,1,0,0,0,1-1V8H12Z" transform="translate(3 2)" fill="url(#linear-gradient)"/>
    </g>
    <g transform="matrix(1, 0, 0, 1, -3, -2)" filter="url(#Path_3)">
      <path id="Path_3-2" data-name="Path 3" d="M0,0V8H8Z" transform="translate(15 2)" fill="rgba(226,238,255,0.64)"/>
    </g>
  </g>
</svg>
