<svg xmlns="http://www.w3.org/2000/svg" xmlns:xlink="http://www.w3.org/1999/xlink" width="30" height="29" viewBox="0 0 30 29">
  <defs>
    <linearGradient id="linear-gradient" x1="0.5" x2="0.5" y2="1" gradientUnits="objectBoundingBox">
      <stop offset="0" stop-color="#fff"/>
      <stop offset="1" stop-color="#e2eeff"/>
    </linearGradient>
    <filter id="Path" x="0" y="0" width="30" height="27.899" filterUnits="userSpaceOnUse">
      <feOffset dy="1" input="SourceAlpha"/>
      <feGaussianBlur stdDeviation="1" result="blur"/>
      <feFlood flood-color="#101d2d" flood-opacity="0.122"/>
      <feComposite operator="in" in2="blur"/>
      <feComposite in="SourceGraphic"/>
    </filter>
    <filter id="Path-2" x="10" y="11" width="18" height="18" filterUnits="userSpaceOnUse">
      <feOffset dy="1" input="SourceAlpha"/>
      <feGaussianBlur stdDeviation="1" result="blur-2"/>
      <feFlood flood-color="#101d2d" flood-opacity="0.122"/>
      <feComposite operator="in" in2="blur-2"/>
      <feComposite in="SourceGraphic"/>
    </filter>
  </defs>
  <g id="cards-6" transform="translate(3 2)">
    <g transform="matrix(1, 0, 0, 1, -3, -2)" filter="url(#Path)">
      <path id="Path-3" data-name="Path" d="M21.95,2.051a7,7,0,0,0-9.9,0L12,2.1l-.05-.051a7,7,0,1,0-9.9,9.9L12,21.9l9.95-9.95a7,7,0,0,0,0-9.9Z" transform="translate(3 2)" fill="url(#linear-gradient)"/>
    </g>
    <g transform="matrix(1, 0, 0, 1, -3, -2)" filter="url(#Path-2)">
      <path id="Path-4" data-name="Path" d="M6,0a6,6,0,1,0,4.243,1.757A6,6,0,0,0,6,0Z" transform="translate(13 13)" fill="rgba(226,238,255,0.64)"/>
    </g>
  </g>
</svg>
