<svg xmlns="http://www.w3.org/2000/svg" xmlns:xlink="http://www.w3.org/1999/xlink" width="40.313" height="35.476" viewBox="0 0 40.313 35.476">
  <defs>
    <filter id="Shape" x="0" y="0" width="40.313" height="35.476" filterUnits="userSpaceOnUse">
      <feOffset dy="1" input="SourceAlpha"/>
      <feGaussianBlur stdDeviation="1" result="blur"/>
      <feFlood flood-color="#101d2d" flood-opacity="0.122"/>
      <feComposite operator="in" in2="blur"/>
      <feComposite in="SourceGraphic"/>
    </filter>
    <linearGradient id="linear-gradient" x1="0.5" x2="0.5" y2="1" gradientUnits="objectBoundingBox">
      <stop offset="0" stop-color="#fff"/>
      <stop offset="1" stop-color="#e2eeff"/>
    </linearGradient>
    <filter id="Shape-2" x="2.656" y="5.238" width="35" height="25" filterUnits="userSpaceOnUse">
      <feOffset dy="1" input="SourceAlpha"/>
      <feGaussianBlur stdDeviation="1" result="blur-2"/>
      <feFlood flood-color="#101d2d" flood-opacity="0.122"/>
      <feComposite operator="in" in2="blur-2"/>
      <feComposite in="SourceGraphic"/>
    </filter>
  </defs>
  <g id="cards-2" transform="translate(2.656 1.238)">
    <g transform="matrix(1, 0, 0, 1, -2.66, -1.24)" filter="url(#Shape)">
      <path id="Shape-3" data-name="Shape" d="M28,0H1A.975.975,0,0,0,0,.947V18.053A.975.975,0,0,0,1,19H28a.975.975,0,0,0,1-.947V.947A.975.975,0,0,0,28,0Z" transform="translate(11.03 2) rotate(25)" fill="rgba(226,238,255,0.64)"/>
    </g>
    <g transform="matrix(1, 0, 0, 1, -2.66, -1.24)" filter="url(#Shape-2)">
      <path id="Shape-4" data-name="Shape" d="M28,0H1A.975.975,0,0,0,0,.947V18.053A.975.975,0,0,0,1,19H28a.975.975,0,0,0,1-.947V.947A.975.975,0,0,0,28,0Z" transform="translate(5.66 7.24)" fill="url(#linear-gradient)"/>
    </g>
    <path id="Path" d="M3.5,7A3.5,3.5,0,1,1,7,3.5,3.5,3.5,0,0,1,3.5,7Z" transform="translate(14 12)" fill="rgba(80,145,238,0.64)"/>
  </g>
</svg>
