<svg id="hello-shapes.svg" xmlns="http://www.w3.org/2000/svg" width="650" height="427" viewBox="0 0 650 427">
  <g id="_1" data-name="1">
    <path id="_1-2" data-name="1" d="M140,224v-4h4v4Zm-20,0v-4h4v4Zm-20,0v-4h4v4Zm-20,0v-4h4v4Zm-20,0v-4h4v4Zm-20,0v-4h4v4Zm-20,0v-4h4v4ZM0,224v-4H4v4Zm140-20v-4h4v4Zm-20,0v-4h4v4Zm-20,0v-4h4v4Zm-20,0v-4h4v4Zm-20,0v-4h4v4Zm-20,0v-4h4v4Zm-20,0v-4h4v4ZM0,204v-4H4v4Zm140-20v-4h4v4Zm-20,0v-4h4v4Zm-20,0v-4h4v4Zm-20,0v-4h4v4Zm-20,0v-4h4v4Zm-20,0v-4h4v4Zm-20,0v-4h4v4ZM0,184v-4H4v4Zm140-20v-4h4v4Zm-20,0v-4h4v4Zm-20,0v-4h4v4Zm-20,0v-4h4v4Zm-20,0v-4h4v4Zm-20,0v-4h4v4Zm-20,0v-4h4v4ZM0,164v-4H4v4Zm140-20v-4h4v4Zm-20,0v-4h4v4Zm-20,0v-4h4v4Zm-20,0v-4h4v4Zm-20,0v-4h4v4Zm-20,0v-4h4v4Zm-20,0v-4h4v4ZM0,144v-4H4v4Zm140-20v-4h4v4Zm-20,0v-4h4v4Zm-20,0v-4h4v4Zm-20,0v-4h4v4Zm-20,0v-4h4v4Zm-20,0v-4h4v4Zm-20,0v-4h4v4ZM0,124v-4H4v4Zm140-20v-4h4v4Zm-20,0v-4h4v4Zm-20,0v-4h4v4Zm-20,0v-4h4v4Zm-20,0v-4h4v4Zm-20,0v-4h4v4Zm-20,0v-4h4v4ZM0,104v-4H4v4ZM140,84V80h4v4Zm-20,0V80h4v4Zm-20,0V80h4v4ZM80,84V80h4v4ZM60,84V80h4v4ZM40,84V80h4v4ZM20,84V80h4v4ZM0,84V80H4v4ZM140,64V60h4v4Zm-20,0V60h4v4Zm-20,0V60h4v4ZM80,64V60h4v4ZM60,64V60h4v4ZM40,64V60h4v4ZM20,64V60h4v4ZM0,64V60H4v4ZM140,44V40h4v4Zm-20,0V40h4v4Zm-20,0V40h4v4ZM80,44V40h4v4ZM60,44V40h4v4ZM40,44V40h4v4ZM20,44V40h4v4ZM0,44V40H4v4ZM140,24V20h4v4Zm-20,0V20h4v4Zm-20,0V20h4v4ZM80,24V20h4v4ZM60,24V20h4v4ZM40,24V20h4v4ZM20,24V20h4v4ZM0,24V20H4v4ZM140,4V0h4V4ZM120,4V0h4V4ZM100,4V0h4V4ZM80,4V0h4V4ZM60,4V0h4V4Z" transform="translate(0 203)" fill="none"/>
    <path id="_1-3" data-name="1" d="M140,224v-4h4v4Zm-20,0v-4h4v4Zm-20,0v-4h4v4Zm-20,0v-4h4v4Zm-20,0v-4h4v4Zm-20,0v-4h4v4Zm-20,0v-4h4v4ZM0,224v-4H4v4Zm140-20v-4h4v4Zm-20,0v-4h4v4Zm-20,0v-4h4v4Zm-20,0v-4h4v4Zm-20,0v-4h4v4Zm-20,0v-4h4v4Zm-20,0v-4h4v4ZM0,204v-4H4v4Zm140-20v-4h4v4Zm-20,0v-4h4v4Zm-20,0v-4h4v4Zm-20,0v-4h4v4Zm-20,0v-4h4v4Zm-20,0v-4h4v4Zm-20,0v-4h4v4ZM0,184v-4H4v4Zm140-20v-4h4v4Zm-20,0v-4h4v4Zm-20,0v-4h4v4Zm-20,0v-4h4v4Zm-20,0v-4h4v4Zm-20,0v-4h4v4Zm-20,0v-4h4v4ZM0,164v-4H4v4Zm140-20v-4h4v4Zm-20,0v-4h4v4Zm-20,0v-4h4v4Zm-20,0v-4h4v4Zm-20,0v-4h4v4Zm-20,0v-4h4v4Zm-20,0v-4h4v4ZM0,144v-4H4v4Zm140-20v-4h4v4Zm-20,0v-4h4v4Zm-20,0v-4h4v4Zm-20,0v-4h4v4Zm-20,0v-4h4v4Zm-20,0v-4h4v4Zm-20,0v-4h4v4ZM0,124v-4H4v4Zm140-20v-4h4v4Zm-20,0v-4h4v4Zm-20,0v-4h4v4Zm-20,0v-4h4v4Zm-20,0v-4h4v4Zm-20,0v-4h4v4Zm-20,0v-4h4v4ZM0,104v-4H4v4ZM140,84V80h4v4Zm-20,0V80h4v4Zm-20,0V80h4v4ZM80,84V80h4v4ZM60,84V80h4v4ZM40,84V80h4v4ZM20,84V80h4v4ZM0,84V80H4v4ZM140,64V60h4v4Zm-20,0V60h4v4Zm-20,0V60h4v4ZM80,64V60h4v4ZM60,64V60h4v4ZM40,64V60h4v4ZM20,64V60h4v4ZM0,64V60H4v4ZM140,44V40h4v4Zm-20,0V40h4v4Zm-20,0V40h4v4ZM80,44V40h4v4ZM60,44V40h4v4ZM40,44V40h4v4ZM20,44V40h4v4ZM0,44V40H4v4ZM140,24V20h4v4Zm-20,0V20h4v4Zm-20,0V20h4v4ZM80,24V20h4v4ZM60,24V20h4v4ZM40,24V20h4v4ZM20,24V20h4v4ZM0,24V20H4v4ZM140,4V0h4V4ZM120,4V0h4V4ZM100,4V0h4V4ZM80,4V0h4V4ZM60,4V0h4V4Z" transform="translate(0 203)" fill="#2bbf96"/>
    <path id="_1-4" data-name="1" d="M140,224v-4h4v4Zm-20,0v-4h4v4Zm-20,0v-4h4v4Zm-20,0v-4h4v4Zm-20,0v-4h4v4Zm-20,0v-4h4v4Zm-20,0v-4h4v4ZM0,224v-4H4v4Zm140-20v-4h4v4Zm-20,0v-4h4v4Zm-20,0v-4h4v4Zm-20,0v-4h4v4Zm-20,0v-4h4v4Zm-20,0v-4h4v4Zm-20,0v-4h4v4ZM0,204v-4H4v4Zm140-20v-4h4v4Zm-20,0v-4h4v4Zm-20,0v-4h4v4Zm-20,0v-4h4v4Zm-20,0v-4h4v4Zm-20,0v-4h4v4Zm-20,0v-4h4v4ZM0,184v-4H4v4Zm140-20v-4h4v4Zm-20,0v-4h4v4Zm-20,0v-4h4v4Zm-20,0v-4h4v4Zm-20,0v-4h4v4Zm-20,0v-4h4v4Zm-20,0v-4h4v4ZM0,164v-4H4v4Zm140-20v-4h4v4Zm-20,0v-4h4v4Zm-20,0v-4h4v4Zm-20,0v-4h4v4Zm-20,0v-4h4v4Zm-20,0v-4h4v4Zm-20,0v-4h4v4ZM0,144v-4H4v4Zm140-20v-4h4v4Zm-20,0v-4h4v4Zm-20,0v-4h4v4Zm-20,0v-4h4v4Zm-20,0v-4h4v4Zm-20,0v-4h4v4Zm-20,0v-4h4v4ZM0,124v-4H4v4Zm140-20v-4h4v4Zm-20,0v-4h4v4Zm-20,0v-4h4v4Zm-20,0v-4h4v4Zm-20,0v-4h4v4Zm-20,0v-4h4v4Zm-20,0v-4h4v4ZM0,104v-4H4v4ZM140,84V80h4v4Zm-20,0V80h4v4Zm-20,0V80h4v4ZM80,84V80h4v4ZM60,84V80h4v4ZM40,84V80h4v4ZM20,84V80h4v4ZM0,84V80H4v4ZM140,64V60h4v4Zm-20,0V60h4v4Zm-20,0V60h4v4ZM80,64V60h4v4ZM60,64V60h4v4ZM40,64V60h4v4ZM20,64V60h4v4ZM0,64V60H4v4ZM140,44V40h4v4Zm-20,0V40h4v4Zm-20,0V40h4v4ZM80,44V40h4v4ZM60,44V40h4v4ZM40,44V40h4v4ZM20,44V40h4v4ZM0,44V40H4v4ZM140,24V20h4v4Zm-20,0V20h4v4Zm-20,0V20h4v4ZM80,24V20h4v4ZM60,24V20h4v4ZM40,24V20h4v4ZM20,24V20h4v4ZM0,24V20H4v4ZM140,4V0h4V4ZM120,4V0h4V4ZM100,4V0h4V4ZM80,4V0h4V4ZM60,4V0h4V4Z" transform="translate(0 203)" fill="none"/>
  </g>
  <g id="_2" data-name="/2" transform="translate(71)" fill="none" stroke="rgba(88,103,122,0.48)" stroke-miterlimit="10" stroke-width="2">
    <rect width="528" height="396" stroke="none"/>
    <rect x="1" y="1" width="526" height="394" fill="none"/>
  </g>
  <g id="_3" data-name="3">
    <path id="_3-2" data-name="3" d="M100,164v-4h4v4Zm-20,0v-4h4v4Zm-20,0v-4h4v4Zm-20,0v-4h4v4Zm-20,0v-4h4v4ZM0,164v-4H4v4Zm100-20v-4h4v4Zm-20,0v-4h4v4Zm-20,0v-4h4v4Zm-20,0v-4h4v4Zm-20,0v-4h4v4ZM0,144v-4H4v4Zm100-20v-4h4v4Zm-20,0v-4h4v4Zm-20,0v-4h4v4Zm-20,0v-4h4v4Zm-20,0v-4h4v4ZM0,124v-4H4v4Zm100-20v-4h4v4Zm-20,0v-4h4v4Zm-20,0v-4h4v4Zm-20,0v-4h4v4Zm-20,0v-4h4v4ZM0,104v-4H4v4ZM100,84V80h4v4ZM80,84V80h4v4ZM60,84V80h4v4ZM40,84V80h4v4ZM20,84V80h4v4ZM0,84V80H4v4ZM100,64V60h4v4ZM80,64V60h4v4ZM60,64V60h4v4ZM40,64V60h4v4ZM20,64V60h4v4ZM0,64V60H4v4ZM100,44V40h4v4ZM80,44V40h4v4ZM60,44V40h4v4ZM40,44V40h4v4ZM20,44V40h4v4ZM0,44V40H4v4ZM100,24V20h4v4ZM80,24V20h4v4ZM60,24V20h4v4ZM40,24V20h4v4ZM20,24V20h4v4ZM0,24V20H4v4ZM100,4V0h4V4ZM80,4V0h4V4ZM60,4V0h4V4ZM40,4V0h4V4ZM20,4V0h4V4ZM0,4V0H4V4Z" transform="translate(546 134)" fill="none"/>
    <path id="_3-3" data-name="3" d="M100,164v-4h4v4Zm-20,0v-4h4v4Zm-20,0v-4h4v4Zm-20,0v-4h4v4Zm-20,0v-4h4v4ZM0,164v-4H4v4Zm100-20v-4h4v4Zm-20,0v-4h4v4Zm-20,0v-4h4v4Zm-20,0v-4h4v4Zm-20,0v-4h4v4ZM0,144v-4H4v4Zm100-20v-4h4v4Zm-20,0v-4h4v4Zm-20,0v-4h4v4Zm-20,0v-4h4v4Zm-20,0v-4h4v4ZM0,124v-4H4v4Zm100-20v-4h4v4Zm-20,0v-4h4v4Zm-20,0v-4h4v4Zm-20,0v-4h4v4Zm-20,0v-4h4v4ZM0,104v-4H4v4ZM100,84V80h4v4ZM80,84V80h4v4ZM60,84V80h4v4ZM40,84V80h4v4ZM20,84V80h4v4ZM0,84V80H4v4ZM100,64V60h4v4ZM80,64V60h4v4ZM60,64V60h4v4ZM40,64V60h4v4ZM20,64V60h4v4ZM0,64V60H4v4ZM100,44V40h4v4ZM80,44V40h4v4ZM60,44V40h4v4ZM40,44V40h4v4ZM20,44V40h4v4ZM0,44V40H4v4ZM100,24V20h4v4ZM80,24V20h4v4ZM60,24V20h4v4ZM40,24V20h4v4ZM20,24V20h4v4ZM0,24V20H4v4ZM100,4V0h4V4ZM80,4V0h4V4ZM60,4V0h4V4ZM40,4V0h4V4ZM20,4V0h4V4ZM0,4V0H4V4Z" transform="translate(546 134)" fill="rgba(149,164,180,0.64)"/>
    <path id="_3-4" data-name="3" d="M100,164v-4h4v4Zm-20,0v-4h4v4Zm-20,0v-4h4v4Zm-20,0v-4h4v4Zm-20,0v-4h4v4ZM0,164v-4H4v4Zm100-20v-4h4v4Zm-20,0v-4h4v4Zm-20,0v-4h4v4Zm-20,0v-4h4v4Zm-20,0v-4h4v4ZM0,144v-4H4v4Zm100-20v-4h4v4Zm-20,0v-4h4v4Zm-20,0v-4h4v4Zm-20,0v-4h4v4Zm-20,0v-4h4v4ZM0,124v-4H4v4Zm100-20v-4h4v4Zm-20,0v-4h4v4Zm-20,0v-4h4v4Zm-20,0v-4h4v4Zm-20,0v-4h4v4ZM0,104v-4H4v4ZM100,84V80h4v4ZM80,84V80h4v4ZM60,84V80h4v4ZM40,84V80h4v4ZM20,84V80h4v4ZM0,84V80H4v4ZM100,64V60h4v4ZM80,64V60h4v4ZM60,64V60h4v4ZM40,64V60h4v4ZM20,64V60h4v4ZM0,64V60H4v4ZM100,44V40h4v4ZM80,44V40h4v4ZM60,44V40h4v4ZM40,44V40h4v4ZM20,44V40h4v4ZM0,44V40H4v4ZM100,24V20h4v4ZM80,24V20h4v4ZM60,24V20h4v4ZM40,24V20h4v4ZM20,24V20h4v4ZM0,24V20H4v4ZM100,4V0h4V4ZM80,4V0h4V4ZM60,4V0h4V4ZM40,4V0h4V4ZM20,4V0h4V4ZM0,4V0H4V4Z" transform="translate(546 134)" fill="none"/>
  </g>
</svg>
