<svg xmlns="http://www.w3.org/2000/svg" width="29.676" height="25.869" viewBox="0 0 29.676 25.869">
  <g id="Logo" transform="translate(-1 -3.646)">
    <g id="Group" transform="translate(1 3)">
      <path id="Fill_1" data-name="Fill 1" d="M14.25.116c.039.9-.509.468-.79.629-.894.524-1.491,2.041-2.612,2.125-.423.87-1.121.9-1.874,1.5-.327.256-.463.839-.756,1.1L4.524,8.741a2.4,2.4,0,0,1-.439.313c-.379.219-.657.717-1.1.81-.475.106-1.6-.775-2.633-2.012C-.47,6.265.33,5.928.873,5.327A18.057,18.057,0,0,1,4.458,2.574a15.3,15.3,0,0,1,2.59-1.482A18.337,18.337,0,0,1,9.786.051a20.546,20.546,0,0,1,2.206,0A9.6,9.6,0,0,1,14.25.116" transform="translate(0 1)" fill="#2174ea"/>
      <path id="Fill_4" data-name="Fill 4" d="M28.618,0c-.06,1.046-1.038.955-1.593,1.363-1.762,1.3-3.283,3.647-5.453,4.574C20.5,7.349,19.161,7.889,17.516,9.191c-.711.559-1.21,1.417-1.877,1.965C12.752,13.537,9.971,15.68,7,17.979c-.3.236-.647.468-1.009.7a22.217,22.217,0,0,1-2.543,1.77c-.95.413-2.376-.279-3.375-1.544-.429-1.849,1.112-2.657,2.38-3.737,2.131-1.821,5.331-4.012,7.558-5.536C11.718,8.458,13.406,7.2,15.149,6.2c1.789-1.029,3.439-2.178,5.224-3.062,1.3-.643,2.758-.961,4.038-1.53A40.762,40.762,0,0,1,28.618,0" transform="translate(1.057 0.646)" fill="#2174ea"/>
      <path id="Fill_7" data-name="Fill 7" d="M19.407,0c.229.918-.566.8-.9,1.136-1.048,1.058-1.721,3.056-3.254,3.7-.563,1.17-1.522,1.532-2.6,2.507-.464.426-.731,1.128-1.177,1.542A57.146,57.146,0,0,1,5.4,13.657a6.36,6.36,0,0,1-.748.43,9.777,9.777,0,0,1-1.9,1.065c-.731.161-1.856-.807-2.662-2.2-.4-1.784.715-2.129,1.6-2.818,1.49-1.151,3.693-2.491,5.192-3.486,1.154-.755,2.247-1.633,3.417-2.292,1.2-.681,2.244-1.521,3.44-2.128.868-.448,1.927-.611,2.791-1.029A25.933,25.933,0,0,1,19.407,0" transform="translate(9.979 11.346)" fill="#2174ea"/>
    </g>
  </g>
</svg>
