<svg xmlns="http://www.w3.org/2000/svg" width="144" height="104" viewBox="0 0 144 104">
  <g id="news-bg-shape" transform="translate(-88 -582)">
    <path id="_3" data-name="3" d="M140,104v-4h4v4Zm-20,0v-4h4v4Zm-20,0v-4h4v4Zm-20,0v-4h4v4Zm-20,0v-4h4v4Zm-20,0v-4h4v4Zm-20,0v-4h4v4ZM0,104v-4H4v4ZM140,84V80h4v4Zm-20,0V80h4v4Zm-20,0V80h4v4ZM80,84V80h4v4ZM60,84V80h4v4ZM40,84V80h4v4ZM20,84V80h4v4ZM0,84V80H4v4ZM100,64V60h4v4ZM80,64V60h4v4ZM60,64V60h4v4ZM40,64V60h4v4ZM20,64V60h4v4ZM0,64V60H4v4ZM100,44V40h4v4ZM80,44V40h4v4ZM60,44V40h4v4ZM40,44V40h4v4ZM20,44V40h4v4ZM0,44V40H4v4ZM100,24V20h4v4ZM80,24V20h4v4ZM60,24V20h4v4ZM40,24V20h4v4ZM20,24V20h4v4ZM0,24V20H4v4ZM100,4V0h4V4ZM80,4V0h4V4ZM60,4V0h4V4ZM40,4V0h4V4ZM20,4V0h4V4ZM0,4V0H4V4Z" transform="translate(88 582)" fill="none"/>
    <path id="_3-2" data-name="3" d="M140,104v-4h4v4Zm-20,0v-4h4v4Zm-20,0v-4h4v4Zm-20,0v-4h4v4Zm-20,0v-4h4v4Zm-20,0v-4h4v4Zm-20,0v-4h4v4ZM0,104v-4H4v4ZM140,84V80h4v4Zm-20,0V80h4v4Zm-20,0V80h4v4ZM80,84V80h4v4ZM60,84V80h4v4ZM40,84V80h4v4ZM20,84V80h4v4ZM0,84V80H4v4ZM100,64V60h4v4ZM80,64V60h4v4ZM60,64V60h4v4ZM40,64V60h4v4ZM20,64V60h4v4ZM0,64V60H4v4ZM100,44V40h4v4ZM80,44V40h4v4ZM60,44V40h4v4ZM40,44V40h4v4ZM20,44V40h4v4ZM0,44V40H4v4ZM100,24V20h4v4ZM80,24V20h4v4ZM60,24V20h4v4ZM40,24V20h4v4ZM20,24V20h4v4ZM0,24V20H4v4ZM100,4V0h4V4ZM80,4V0h4V4ZM60,4V0h4V4ZM40,4V0h4V4ZM20,4V0h4V4ZM0,4V0H4V4Z" transform="translate(88 582)" fill="#95a4b4"/>
    <path id="_3-3" data-name="3" d="M140,104v-4h4v4Zm-20,0v-4h4v4Zm-20,0v-4h4v4Zm-20,0v-4h4v4Zm-20,0v-4h4v4Zm-20,0v-4h4v4Zm-20,0v-4h4v4ZM0,104v-4H4v4ZM140,84V80h4v4Zm-20,0V80h4v4Zm-20,0V80h4v4ZM80,84V80h4v4ZM60,84V80h4v4ZM40,84V80h4v4ZM20,84V80h4v4ZM0,84V80H4v4ZM100,64V60h4v4ZM80,64V60h4v4ZM60,64V60h4v4ZM40,64V60h4v4ZM20,64V60h4v4ZM0,64V60H4v4ZM100,44V40h4v4ZM80,44V40h4v4ZM60,44V40h4v4ZM40,44V40h4v4ZM20,44V40h4v4ZM0,44V40H4v4ZM100,24V20h4v4ZM80,24V20h4v4ZM60,24V20h4v4ZM40,24V20h4v4ZM20,24V20h4v4ZM0,24V20H4v4ZM100,4V0h4V4ZM80,4V0h4V4ZM60,4V0h4V4ZM40,4V0h4V4ZM20,4V0h4V4ZM0,4V0H4V4Z" transform="translate(88 582)" fill="none"/>
  </g>
</svg>
